<?xml version="1.0" encoding="UTF-8" standalone="no"?>
<!DOCTYPE svg PUBLIC "-//W3C//DTD SVG 1.1//EN"
 "http://www.w3.org/Graphics/SVG/1.1/DTD/svg11.dtd">
<!-- Generated by graphviz version 2.40.1 (20161225.0304)
 -->
<!-- Title: G Pages: 1 -->
<svg width="1728pt" height="188pt"
 viewBox="0.00 0.00 1728.14 188.00" xmlns="http://www.w3.org/2000/svg" xmlns:xlink="http://www.w3.org/1999/xlink">
<g id="graph0" class="graph" transform="scale(1 1) rotate(0) translate(4 184)">
<title>G</title>
<polygon fill="#ffffff" stroke="transparent" points="-4,4 -4,-184 1724.1378,-184 1724.1378,4 -4,4"/>
<!-- n2 -->
<g id="node1" class="node">
<title>n2</title>
<ellipse fill="none" stroke="#ff0000" cx="942.0421" cy="-18" rx="68.4888" ry="18"/>
<text text-anchor="middle" x="942.0421" y="-14.3" font-family="Times,serif" font-size="14.00" fill="#000000">EXECUTABLE</text>
</g>
<!-- n21 -->
<g id="node2" class="node">
<title>n21</title>
<ellipse fill="none" stroke="#00ff00" cx="89.0421" cy="-162" rx="89.0842" ry="18"/>
<text text-anchor="middle" x="89.0421" y="-158.3" font-family="Times,serif" font-size="14.00" fill="#000000">src/basic_operations.c</text>
</g>
<!-- n20 -->
<g id="node4" class="node">
<title>n20</title>
<ellipse fill="none" stroke="#ff0000" cx="285.0421" cy="-90" rx="89.0842" ry="18"/>
<text text-anchor="middle" x="285.0421" y="-86.3" font-family="Times,serif" font-size="14.00" fill="#000000">src/basic_operations.o</text>
</g>
<!-- n21&#45;&gt;n20 -->
<g id="edge8" class="edge">
<title>n21&#45;&gt;n20</title>
<path fill="none" stroke="#000000" d="M132.0551,-146.1993C161.5686,-135.3576 200.9196,-120.9021 232.3209,-109.367"/>
<polygon fill="#000000" stroke="#000000" points="233.6114,-112.6217 241.7912,-105.8881 231.1976,-106.051 233.6114,-112.6217"/>
</g>
<!-- n22 -->
<g id="node3" class="node">
<title>n22</title>
<ellipse fill="none" stroke="#00ff00" cx="285.0421" cy="-162" rx="89.0842" ry="18"/>
<text text-anchor="middle" x="285.0421" y="-158.3" font-family="Times,serif" font-size="14.00" fill="#000000">src/basic_operations.h</text>
</g>
<!-- n22&#45;&gt;n20 -->
<g id="edge9" class="edge">
<title>n22&#45;&gt;n20</title>
<path fill="none" stroke="#000000" d="M285.0421,-143.8314C285.0421,-136.131 285.0421,-126.9743 285.0421,-118.4166"/>
<polygon fill="#000000" stroke="#000000" points="288.5422,-118.4132 285.0421,-108.4133 281.5422,-118.4133 288.5422,-118.4132"/>
</g>
<!-- n20&#45;&gt;n2 -->
<g id="edge1" class="edge">
<title>n20&#45;&gt;n2</title>
<path fill="none" stroke="#000000" d="M363.6391,-81.3866C491.8483,-67.3363 744.1714,-39.6845 868.8156,-26.0248"/>
<polygon fill="#000000" stroke="#000000" points="869.4602,-29.4752 879.0194,-24.9066 868.6976,-22.5169 869.4602,-29.4752"/>
</g>
<!-- n18 -->
<g id="node5" class="node">
<title>n18</title>
<ellipse fill="none" stroke="#00ff00" cx="451.0421" cy="-162" rx="59.2899" ry="18"/>
<text text-anchor="middle" x="451.0421" y="-158.3" font-family="Times,serif" font-size="14.00" fill="#000000">src/evaluate.c</text>
</g>
<!-- n17 -->
<g id="node7" class="node">
<title>n17</title>
<ellipse fill="none" stroke="#ff0000" cx="588.0421" cy="-90" rx="59.5901" ry="18"/>
<text text-anchor="middle" x="588.0421" y="-86.3" font-family="Times,serif" font-size="14.00" fill="#000000">src/evaluate.o</text>
</g>
<!-- n18&#45;&gt;n17 -->
<g id="edge10" class="edge">
<title>n18&#45;&gt;n17</title>
<path fill="none" stroke="#000000" d="M480.7691,-146.3771C500.7384,-135.8822 527.2628,-121.9424 548.9399,-110.5501"/>
<polygon fill="#000000" stroke="#000000" points="550.6763,-113.5915 557.9001,-105.8411 547.4198,-107.3951 550.6763,-113.5915"/>
</g>
<!-- n19 -->
<g id="node6" class="node">
<title>n19</title>
<ellipse fill="none" stroke="#00ff00" cx="588.0421" cy="-162" rx="59.5901" ry="18"/>
<text text-anchor="middle" x="588.0421" y="-158.3" font-family="Times,serif" font-size="14.00" fill="#000000">src/evaluate.h</text>
</g>
<!-- n19&#45;&gt;n17 -->
<g id="edge11" class="edge">
<title>n19&#45;&gt;n17</title>
<path fill="none" stroke="#000000" d="M588.0421,-143.8314C588.0421,-136.131 588.0421,-126.9743 588.0421,-118.4166"/>
<polygon fill="#000000" stroke="#000000" points="591.5422,-118.4132 588.0421,-108.4133 584.5422,-118.4133 591.5422,-118.4132"/>
</g>
<!-- n17&#45;&gt;n2 -->
<g id="edge2" class="edge">
<title>n17&#45;&gt;n2</title>
<path fill="none" stroke="#000000" d="M637.637,-79.9129C700.4801,-67.1313 808.905,-45.0787 877.9609,-31.0335"/>
<polygon fill="#000000" stroke="#000000" points="878.7519,-34.4443 887.8537,-29.0214 877.3567,-27.5848 878.7519,-34.4443"/>
</g>
<!-- n12 -->
<g id="node8" class="node">
<title>n12</title>
<ellipse fill="none" stroke="#00ff00" cx="714.0421" cy="-162" rx="48.1917" ry="18"/>
<text text-anchor="middle" x="714.0421" y="-158.3" font-family="Times,serif" font-size="14.00" fill="#000000">src/input.c</text>
</g>
<!-- n11 -->
<g id="node10" class="node">
<title>n11</title>
<ellipse fill="none" stroke="#ff0000" cx="828.0421" cy="-90" rx="48.1917" ry="18"/>
<text text-anchor="middle" x="828.0421" y="-86.3" font-family="Times,serif" font-size="14.00" fill="#000000">src/input.o</text>
</g>
<!-- n12&#45;&gt;n11 -->
<g id="edge12" class="edge">
<title>n12&#45;&gt;n11</title>
<path fill="none" stroke="#000000" d="M738.7784,-146.3771C755.0617,-136.0929 776.5827,-122.5007 794.4134,-111.2392"/>
<polygon fill="#000000" stroke="#000000" points="796.7682,-113.8916 803.3541,-105.5924 793.0302,-107.9732 796.7682,-113.8916"/>
</g>
<!-- n13 -->
<g id="node9" class="node">
<title>n13</title>
<ellipse fill="none" stroke="#00ff00" cx="828.0421" cy="-162" rx="48.1917" ry="18"/>
<text text-anchor="middle" x="828.0421" y="-158.3" font-family="Times,serif" font-size="14.00" fill="#000000">src/input.h</text>
</g>
<!-- n13&#45;&gt;n11 -->
<g id="edge13" class="edge">
<title>n13&#45;&gt;n11</title>
<path fill="none" stroke="#000000" d="M828.0421,-143.8314C828.0421,-136.131 828.0421,-126.9743 828.0421,-118.4166"/>
<polygon fill="#000000" stroke="#000000" points="831.5422,-118.4132 828.0421,-108.4133 824.5422,-118.4133 831.5422,-118.4132"/>
</g>
<!-- n11&#45;&gt;n2 -->
<g id="edge3" class="edge">
<title>n11&#45;&gt;n2</title>
<path fill="none" stroke="#000000" d="M852.7784,-74.3771C868.504,-64.4451 889.1148,-51.4278 906.5689,-40.4041"/>
<polygon fill="#000000" stroke="#000000" points="908.78,-43.1473 915.3659,-34.8481 905.042,-37.2289 908.78,-43.1473"/>
</g>
<!-- n4 -->
<g id="node11" class="node">
<title>n4</title>
<ellipse fill="none" stroke="#00ff00" cx="942.0421" cy="-162" rx="48.1917" ry="18"/>
<text text-anchor="middle" x="942.0421" y="-158.3" font-family="Times,serif" font-size="14.00" fill="#000000">src/main.c</text>
</g>
<!-- n3 -->
<g id="node12" class="node">
<title>n3</title>
<ellipse fill="none" stroke="#ff0000" cx="942.0421" cy="-90" rx="48.1917" ry="18"/>
<text text-anchor="middle" x="942.0421" y="-86.3" font-family="Times,serif" font-size="14.00" fill="#000000">src/main.o</text>
</g>
<!-- n4&#45;&gt;n3 -->
<g id="edge14" class="edge">
<title>n4&#45;&gt;n3</title>
<path fill="none" stroke="#000000" d="M942.0421,-143.8314C942.0421,-136.131 942.0421,-126.9743 942.0421,-118.4166"/>
<polygon fill="#000000" stroke="#000000" points="945.5422,-118.4132 942.0421,-108.4133 938.5422,-118.4133 945.5422,-118.4132"/>
</g>
<!-- n3&#45;&gt;n2 -->
<g id="edge4" class="edge">
<title>n3&#45;&gt;n2</title>
<path fill="none" stroke="#000000" d="M942.0421,-71.8314C942.0421,-64.131 942.0421,-54.9743 942.0421,-46.4166"/>
<polygon fill="#000000" stroke="#000000" points="945.5422,-46.4132 942.0421,-36.4133 938.5422,-46.4133 945.5422,-46.4132"/>
</g>
<!-- n6 -->
<g id="node13" class="node">
<title>n6</title>
<ellipse fill="none" stroke="#00ff00" cx="1069.0421" cy="-162" rx="60.3893" ry="18"/>
<text text-anchor="middle" x="1069.0421" y="-158.3" font-family="Times,serif" font-size="14.00" fill="#000000">src/numbers.c</text>
</g>
<!-- n5 -->
<g id="node15" class="node">
<title>n5</title>
<ellipse fill="none" stroke="#ff0000" cx="1069.0421" cy="-90" rx="61.1893" ry="18"/>
<text text-anchor="middle" x="1069.0421" y="-86.3" font-family="Times,serif" font-size="14.00" fill="#000000">src/numbers.o</text>
</g>
<!-- n6&#45;&gt;n5 -->
<g id="edge15" class="edge">
<title>n6&#45;&gt;n5</title>
<path fill="none" stroke="#000000" d="M1069.0421,-143.8314C1069.0421,-136.131 1069.0421,-126.9743 1069.0421,-118.4166"/>
<polygon fill="#000000" stroke="#000000" points="1072.5422,-118.4132 1069.0421,-108.4133 1065.5422,-118.4133 1072.5422,-118.4132"/>
</g>
<!-- n7 -->
<g id="node14" class="node">
<title>n7</title>
<ellipse fill="none" stroke="#00ff00" cx="1209.0421" cy="-162" rx="61.1893" ry="18"/>
<text text-anchor="middle" x="1209.0421" y="-158.3" font-family="Times,serif" font-size="14.00" fill="#000000">src/numbers.h</text>
</g>
<!-- n7&#45;&gt;n5 -->
<g id="edge16" class="edge">
<title>n7&#45;&gt;n5</title>
<path fill="none" stroke="#000000" d="M1178.6642,-146.3771C1158.2576,-135.8822 1131.1523,-121.9424 1109.0006,-110.5501"/>
<polygon fill="#000000" stroke="#000000" points="1110.3378,-107.3021 1099.8442,-105.8411 1107.1363,-113.5271 1110.3378,-107.3021"/>
</g>
<!-- n5&#45;&gt;n2 -->
<g id="edge5" class="edge">
<title>n5&#45;&gt;n2</title>
<path fill="none" stroke="#000000" d="M1040.8567,-74.0209C1022.9404,-63.8636 999.5245,-50.5884 979.9842,-39.5105"/>
<polygon fill="#000000" stroke="#000000" points="981.4546,-36.3208 971.0292,-34.4336 978.0023,-42.4103 981.4546,-36.3208"/>
</g>
<!-- n15 -->
<g id="node16" class="node">
<title>n15</title>
<ellipse fill="none" stroke="#00ff00" cx="1334.0421" cy="-162" rx="46.2923" ry="18"/>
<text text-anchor="middle" x="1334.0421" y="-158.3" font-family="Times,serif" font-size="14.00" fill="#000000">src/print.c</text>
</g>
<!-- n14 -->
<g id="node18" class="node">
<title>n14</title>
<ellipse fill="none" stroke="#ff0000" cx="1334.0421" cy="-90" rx="46.5926" ry="18"/>
<text text-anchor="middle" x="1334.0421" y="-86.3" font-family="Times,serif" font-size="14.00" fill="#000000">src/print.o</text>
</g>
<!-- n15&#45;&gt;n14 -->
<g id="edge17" class="edge">
<title>n15&#45;&gt;n14</title>
<path fill="none" stroke="#000000" d="M1334.0421,-143.8314C1334.0421,-136.131 1334.0421,-126.9743 1334.0421,-118.4166"/>
<polygon fill="#000000" stroke="#000000" points="1337.5422,-118.4132 1334.0421,-108.4133 1330.5422,-118.4133 1337.5422,-118.4132"/>
</g>
<!-- n16 -->
<g id="node17" class="node">
<title>n16</title>
<ellipse fill="none" stroke="#00ff00" cx="1445.0421" cy="-162" rx="46.5926" ry="18"/>
<text text-anchor="middle" x="1445.0421" y="-158.3" font-family="Times,serif" font-size="14.00" fill="#000000">src/print.h</text>
</g>
<!-- n16&#45;&gt;n14 -->
<g id="edge18" class="edge">
<title>n16&#45;&gt;n14</title>
<path fill="none" stroke="#000000" d="M1420.9568,-146.3771C1405.102,-136.0929 1384.1473,-122.5007 1366.7858,-111.2392"/>
<polygon fill="#000000" stroke="#000000" points="1368.3748,-108.098 1358.0804,-105.5924 1364.5654,-113.9708 1368.3748,-108.098"/>
</g>
<!-- n14&#45;&gt;n2 -->
<g id="edge6" class="edge">
<title>n14&#45;&gt;n2</title>
<path fill="none" stroke="#000000" d="M1291.7188,-82.2263C1223.6562,-69.725 1089.336,-45.054 1008.4272,-30.1932"/>
<polygon fill="#000000" stroke="#000000" points="1008.8161,-26.7061 998.3483,-28.342 1007.5515,-33.591 1008.8161,-26.7061"/>
</g>
<!-- n9 -->
<g id="node19" class="node">
<title>n9</title>
<ellipse fill="none" stroke="#00ff00" cx="1558.0421" cy="-162" rx="48.1917" ry="18"/>
<text text-anchor="middle" x="1558.0421" y="-158.3" font-family="Times,serif" font-size="14.00" fill="#000000">src/stack.c</text>
</g>
<!-- n8 -->
<g id="node21" class="node">
<title>n8</title>
<ellipse fill="none" stroke="#ff0000" cx="1558.0421" cy="-90" rx="48.1917" ry="18"/>
<text text-anchor="middle" x="1558.0421" y="-86.3" font-family="Times,serif" font-size="14.00" fill="#000000">src/stack.o</text>
</g>
<!-- n9&#45;&gt;n8 -->
<g id="edge19" class="edge">
<title>n9&#45;&gt;n8</title>
<path fill="none" stroke="#000000" d="M1558.0421,-143.8314C1558.0421,-136.131 1558.0421,-126.9743 1558.0421,-118.4166"/>
<polygon fill="#000000" stroke="#000000" points="1561.5422,-118.4132 1558.0421,-108.4133 1554.5422,-118.4133 1561.5422,-118.4132"/>
</g>
<!-- n10 -->
<g id="node20" class="node">
<title>n10</title>
<ellipse fill="none" stroke="#00ff00" cx="1672.0421" cy="-162" rx="48.1917" ry="18"/>
<text text-anchor="middle" x="1672.0421" y="-158.3" font-family="Times,serif" font-size="14.00" fill="#000000">src/stack.h</text>
</g>
<!-- n10&#45;&gt;n8 -->
<g id="edge20" class="edge">
<title>n10&#45;&gt;n8</title>
<path fill="none" stroke="#000000" d="M1647.3058,-146.3771C1631.0225,-136.0929 1609.5015,-122.5007 1591.6708,-111.2392"/>
<polygon fill="#000000" stroke="#000000" points="1593.054,-107.9732 1582.7301,-105.5924 1589.316,-113.8916 1593.054,-107.9732"/>
</g>
<!-- n8&#45;&gt;n2 -->
<g id="edge7" class="edge">
<title>n8&#45;&gt;n2</title>
<path fill="none" stroke="#000000" d="M1511.9939,-84.6177C1405.7974,-72.2052 1143.0307,-41.4922 1014.7875,-26.5027"/>
<polygon fill="#000000" stroke="#000000" points="1015.009,-23.0049 1004.6703,-25.3202 1014.1963,-29.9575 1015.009,-23.0049"/>
</g>
</g>
</svg>
